<svg xmlns="http://www.w3.org/2000/svg" version="1.1" xmlns:xlink="http://www.w3.org/1999/xlink" viewBox="0 0 200 200"><rect width="200" height="200" fill="url('#gradient')"></rect><defs><linearGradient id="gradient" gradientTransform="rotate(45 0.5 0.5)"><stop offset="0%" stop-color="#212126"></stop><stop offset="100%" stop-color="#280909"></stop></linearGradient></defs><g><g fill="#7c3ead" transform="matrix(1.836039446159976,0,0,1.836039446159976,8.851264332915122,113.77935855295307)" stroke="#deb935" stroke-width="0.15"><path d="M8.41-3.78L8.41-3.78Q8.41-4.53 7.88-4.95Q7.34-5.37 6.01-5.82Q4.67-6.27 3.82-6.69L3.82-6.69Q1.05-8.05 1.05-10.42L1.05-10.42Q1.05-11.60 1.74-12.50Q2.43-13.41 3.69-13.91Q4.95-14.41 6.52-14.41L6.52-14.41Q8.06-14.41 9.27-13.87Q10.49-13.32 11.16-12.31Q11.84-11.30 11.84-10L11.84-10L8.42-10Q8.42-10.87 7.89-11.35Q7.35-11.83 6.45-11.83L6.45-11.83Q5.53-11.83 5.00-11.42Q4.46-11.02 4.46-10.39L4.46-10.39Q4.46-9.84 5.05-9.40Q5.63-8.96 7.11-8.48Q8.58-8.01 9.53-7.46L9.53-7.46Q11.84-6.13 11.84-3.80L11.84-3.80Q11.84-1.93 10.43-0.87Q9.02 0.20 6.57 0.20L6.57 0.20Q4.84 0.20 3.44-0.42Q2.04-1.04 1.33-2.12Q0.63-3.20 0.63-4.61L0.63-4.61L4.06-4.61Q4.06-3.47 4.65-2.92Q5.24-2.38 6.57-2.38L6.57-2.38Q7.42-2.38 7.92-2.75Q8.41-3.12 8.41-3.78ZM20.93-3.78L20.93-3.78Q20.93-4.53 20.40-4.95Q19.86-5.37 18.53-5.82Q17.19-6.27 16.34-6.69L16.34-6.69Q13.57-8.05 13.57-10.42L13.57-10.42Q13.57-11.60 14.26-12.50Q14.95-13.41 16.21-13.91Q17.47-14.41 19.04-14.41L19.04-14.41Q20.58-14.41 21.79-13.87Q23.01-13.32 23.68-12.31Q24.36-11.30 24.36-10L24.36-10L20.94-10Q20.94-10.87 20.41-11.35Q19.87-11.83 18.96-11.83L18.96-11.83Q18.05-11.83 17.51-11.42Q16.98-11.02 16.98-10.39L16.98-10.39Q16.98-9.84 17.57-9.40Q18.15-8.96 19.63-8.48Q21.10-8.01 22.05-7.46L22.05-7.46Q24.36-6.13 24.36-3.80L24.36-3.80Q24.36-1.93 22.95-0.87Q21.54 0.20 19.09 0.20L19.09 0.20Q17.36 0.20 15.96-0.42Q14.56-1.04 13.85-2.12Q13.14-3.20 13.14-4.61L13.14-4.61L16.58-4.61Q16.58-3.47 17.17-2.92Q17.76-2.38 19.09-2.38L19.09-2.38Q19.94-2.38 20.43-2.75Q20.93-3.12 20.93-3.78ZM42.97-14.22L42.97 0L39.56 0L34.52-8.85L34.52 0L31.09 0L31.09-14.22L34.52-14.22L39.55-5.37L39.55-14.22L42.97-14.22ZM44.58-4.82L44.57-5.38Q44.57-6.96 45.19-8.20Q45.80-9.43 46.95-10.10Q48.11-10.76 49.66-10.76L49.66-10.76Q52.03-10.76 53.40-9.29Q54.77-7.82 54.77-5.29L54.77-5.29L54.77-5.18Q54.77-2.71 53.39-1.25Q52.02 0.20 49.68 0.20L49.68 0.20Q47.42 0.20 46.05-1.16Q44.69-2.51 44.58-4.82L44.58-4.82ZM47.87-5.77L47.86-5.18Q47.86-3.71 48.32-3.03Q48.78-2.34 49.68-2.34L49.68-2.34Q51.44-2.34 51.47-5.05L51.47-5.05L51.47-5.38Q51.47-8.22 49.66-8.22L49.66-8.22Q48.01-8.22 47.87-5.77L47.87-5.77ZM56.76-13.19L60.05-13.19L60.05-10.57L61.79-10.57L61.79-8.28L60.05-8.28L60.05-3.45Q60.05-2.85 60.26-2.62Q60.48-2.38 61.11-2.38L61.11-2.38Q61.60-2.38 61.93-2.44L61.93-2.44L61.93-0.09Q61.04 0.20 60.08 0.20L60.08 0.20Q58.38 0.20 57.57-0.61Q56.76-1.41 56.76-3.04L56.76-3.04L56.76-8.28L55.41-8.28L55.41-10.57L56.76-10.57L56.76-13.19ZM66.55-10.57L66.55 0L63.25 0L63.25-10.57L66.55-10.57ZM63.06-13.29L63.06-13.29Q63.06-13.99 63.56-14.44Q64.07-14.89 64.88-14.89Q65.69-14.89 66.20-14.44Q66.71-13.99 66.71-13.29Q66.71-12.59 66.20-12.14Q65.69-11.69 64.88-11.69Q64.07-11.69 63.56-12.14Q63.06-12.59 63.06-13.29ZM72.61 0L69.31 0L69.31-8.28L67.77-8.28L67.77-10.57L69.31-10.57L69.31-11.41Q69.31-13.21 70.37-14.21Q71.44-15.21 73.36-15.21L73.36-15.21Q74.06-15.21 74.90-15L74.90-15L74.91-12.58Q74.61-12.67 74.10-12.67L74.10-12.67Q72.61-12.67 72.61-11.38L72.61-11.38L72.61-10.57L74.67-10.57L74.67-8.28L72.61-8.28L72.61 0ZM79.30-10.57L79.30 0L76.00 0L76.00-10.57L79.30-10.57ZM75.80-13.29L75.80-13.29Q75.80-13.99 76.31-14.44Q76.82-14.89 77.63-14.89Q78.44-14.89 78.95-14.44Q79.45-13.99 79.45-13.29Q79.45-12.59 78.95-12.14Q78.44-11.69 77.63-11.69Q76.82-11.69 76.31-12.14Q75.80-12.59 75.80-13.29ZM86.44 0.20L86.44 0.20Q84.00 0.20 82.50-1.25Q81.00-2.71 81.00-5.03L81.00-5.03L81.00-5.30Q81.00-6.92 81.60-8.16Q82.20-9.40 83.35-10.08Q84.50-10.76 86.08-10.76L86.08-10.76Q88.31-10.76 89.60-9.38Q90.89-8.00 90.89-5.53L90.89-5.53L90.89-4.25L84.35-4.25Q84.52-3.36 85.12-2.85Q85.71-2.34 86.66-2.34L86.66-2.34Q88.22-2.34 89.10-3.44L89.10-3.44L90.61-1.66Q89.99-0.81 88.86-0.31Q87.73 0.20 86.44 0.20ZM86.06-8.22L86.06-8.22Q84.62-8.22 84.35-6.31L84.35-6.31L87.67-6.31L87.67-6.56Q87.69-7.35 87.27-7.79Q86.85-8.22 86.06-8.22ZM98.66-10.64L98.60-7.59L97.52-7.67Q95.97-7.67 95.53-6.69L95.53-6.69L95.53 0L92.24 0L92.24-10.57L95.32-10.57L95.43-9.21Q96.26-10.76 97.74-10.76L97.74-10.76Q98.27-10.76 98.66-10.64L98.66-10.64Z"></path></g></g></svg>